<?xml version="1.0" encoding="utf-8"?>
<!-- Generator: Adobe Illustrator 20.1.0, SVG Export Plug-In . SVG Version: 6.00 Build 0)  -->
<svg version="1.1" id="Layer_1" xmlns="http://www.w3.org/2000/svg" xmlns:xlink="http://www.w3.org/1999/xlink" x="0px" y="0px"
	 viewBox="0 0 386.7 443.9" style="enable-background:new 0 0 386.7 443.9;" xml:space="preserve">
<style type="text/css">
	.st0{fill:#0C53CB;}
</style>
<g>
	<path class="st0" d="M145.9,170.2l-0.5-1c-0.1,0.5-0.1,1,0,1.5C145.5,170.5,145.7,170.3,145.9,170.2"/>
	<path class="st0" d="M140.3,156.7l-0.7,0.4l0.5,1c0.3,0.1,0.7,0.1,1,0.2L140.3,156.7z"/>
	<path class="st0" d="M144,161.9c-0.1-0.1-0.3-0.1-0.4-0.2l1,1.9C144.7,162.9,144.5,162.3,144,161.9"/>
	<path class="st0" d="M169.6,156.4L166,166l-4.1,10.6l-3.3-6.1l-0.4-0.8l0,0l-4.3-7.9l14.4-7.9l0,0l0,0L169.6,156.4z M144.3,174.4
		c-0.1-0.2-0.2-0.5-0.2-0.7l8.3-4.6c0.2,0.2,0.4,0.4,0.6,0.7L144.3,174.4z M124.7,157.1l4.8-2.6c-0.2-0.3-0.4-0.7-0.6-1.1l-5.1,2.8
		c-0.2-0.3-0.5-0.6-0.7-0.9l5.2-2.9c-3.2-6-6-15.1-3.6-18.6c0.4-0.5,0.8-0.8,1.3-1.1l0,0c0.2-0.1,0.3-0.2,0.5-0.2
		c2.8-1.3,5.9-0.8,8.6,1.9c1,0.9,2.4,2.5,2.4,2.5c0.2,0.2,0.3,0.5,0.4,0.8l-0.3-0.2l-0.4,1.1l0.1-1.4l-1.7-1.1l-0.6,0.2l0.9,0.6
		l0.7,0.4l-0.5-0.2l0.2,0.7l-0.4-0.8l-0.9-0.4l0.3,0.2l1.9,2.2c-0.4,0.1-0.9,0-1.2-0.4c0,0-1.6-1.7-2.2-2.2c-2.3-2-5-2.8-7.2-0.6
		c-2,2.5,1,10.3,3.8,15.5l17.1-9.5c0.2,0.4,0.4,0.8,0.5,1.3l-17,9.3c0.2,0.4,0.4,0.7,0.6,1.1l16.6-9.1c0.2,3.8-2.8,8.4-7.8,11.5
		l1.5,2.7c0.9,0.2,1.9,0.6,2.9,1.1c2.2,1.1,2.6,2.7,2.4,5c-0.1,0.7-0.5,1.4-0.8,2.1l1.3,2.4c1.3-0.6,2.6-0.7,3.7-0.5l-6.1,3.3
		c-0.2,0.3-0.5,0.5-0.8,0.5c-0.1,0-0.1,0-0.2,0h-0.1l0,0c-0.5-0.1-1.1-0.6-1.2-1.3c-0.3-1.8,0.2-3.5,0.8-4.9l-3-5.5
		c-1.2-0.3-2.5-0.5-3.8-1c-1-0.4-2.3-0.7-3.6-1.4C130,159.1,126.8,158.6,124.7,157.1 M139.5,141.7c0.1,0.2,0.1,0.3,0.1,0.5
		s-0.1,0.3-0.2,0.4c0,0-0.1,0-0.2,0c-0.2,0-0.5-0.1-0.6-0.4c-0.1-0.3-0.1-0.6,0-0.8l0.1-0.1c0.1-0.1,0.3-0.1,0.4,0
		C139.3,141.4,139.4,141.5,139.5,141.7 M139.5,139.7c0.2,0.3,0.1,0.7-0.1,0.9c-0.1,0.1-0.3,0.1-0.4,0c-0.1-0.1-0.3-0.2-0.4-0.3
		c-0.1-0.2-0.1-0.3-0.1-0.5s0.1-0.3,0.2-0.4C138.9,139.2,139.3,139.3,139.5,139.7 M141.2,142.2c0.2,0,0.5,0.1,0.6,0.4
		c0.1,0.2,0.1,0.5,0,0.7c0,0.1-0.1,0.1-0.2,0.1c-0.1,0.1-0.3,0.1-0.4,0c-0.1-0.1-0.3-0.2-0.4-0.3c-0.1-0.2-0.1-0.3-0.1-0.5
		s0.1-0.3,0.2-0.4C141.1,142.2,141.1,142.2,141.2,142.2 M173,123.9L173,123.9l-6.4-11.9l2.1-6l-18.2-5.8l-4,13.5
		c3.5,6.4,6.9,12.8,10.3,19.1h0.1l0.1,0.3l-14.6,8c-5.7-10.9-6.5-12-12.5-22.8L127,113l-22.2-4.8l1.2,25.3l11.2,1.8l2,3.5l0,0
		l6.3,11.6l-7.7,4.2l11.8,21l7.9-4.3l2.9,5.1l-4.7-0.2l-7,21.2l50.5-0.4l5.2-13.5l0,0l-3.5,9.3l5.6-14.8l0,0l6.6-17.5l-8.2-15.1
		l-9.9-17.8L173,123.9z"/>
	<path class="st0" d="M146,167.2c-0.1,0.3-0.3,0.6-0.4,0.9l0.5,0.9l0.7-0.4L146,167.2z"/>
	<path class="st0" d="M135.2,135.5c0.2-0.1,0.2-0.4,0.1-0.6l-0.7,0.4C134.8,135.4,135,135.5,135.2,135.5"/>
	<path class="st0" d="M139.2,157.9l-0.6-1.1c-0.4,0.2-0.8,0.4-1.3,0.6c0.1,0,0.1,0,0.2,0.1C138,157.6,138.6,157.7,139.2,157.9"/>
	<path class="st0" d="M144.5,164.4l-1.6-3c-0.3-0.1-0.7-0.2-1.1-0.3l2.4,4.3C144.3,165,144.4,164.7,144.5,164.4"/>
	<path class="st0" d="M201.2,224.8c-4.6,1.8-5.5,12.1-1.6,23c3.9,11.2,11.2,18.4,15.7,16.9c4.3-1.4,5.9-11.2,1.4-23
		C211.7,229.8,205.8,223.4,201.2,224.8"/>
	<path class="st0" d="M92.6,267.6c-1.8,0.5-0.9,6.8-0.2,10.5c0.5,4.1,1.8,8,3.9,12.8C94.6,278.3,94.2,267,92.6,267.6"/>
	<path class="st0" d="M240,254.9c3.6-1.4,4.1-9.8,1.4-18c-3-8.4-9.6-16.2-13-14.8c-3.9,1.4-3.9,8.2-0.9,18.4
		C230.4,250.8,236.3,256,240,254.9"/>
	<path class="st0" d="M67.3,293.1c4.1-13,12.3-21.6,10.7-22.1C76.2,270.1,66.9,284.3,67.3,293.1"/>
	<path class="st0" d="M374.1,138c4.6-10.2-20.3-26.4-36.2-27.1c22.5,7.5,28.7,14.4,32.8,21c2.5,4.3,2,8.9-3.6,10.7
		c-5,1.6-29.8-6.6-40.5-8c-10.2-1.1-20.5-1.8-30.7-3.4c-15.5-2.5-27.8-18.5-28-32.8c-0.7-19.4,9.8-34.2,19.1-44.2
		c-0.5-6.8-1.1-12.3-2.3-19.1c-0.7-5.5-1.8-12.1,2.3-13.9c4.6-1.8,13.2-0.2,17.1,3.4c8,7.3,14.1,25.7,3,32.6
		c2.7,4.6,9.8,8.9,15.3,11.6c15.9,8.4,36.4,15.7,48.1,25.7c4.1,3.4,10.2,8.9,7.1,13.9c-12.8-11.2-25.1-18.2-42.1-23.7
		c18.9,9.6,43.5,21.6,48.3,39.2C386,132.3,382.1,139.4,374.1,138 M265.5,130.1c-7.3-7.3-12.5-22.8-0.5-31.4
		c0.2,15,14.6,31.2,27.3,34.2C281.2,141.9,274.1,138.7,265.5,130.1 M196,196.3c2.3-5.9,1.6-9.3,1.4-14.1c-1.4,8.9-5.2,20-11.2,24.8
		c-6.8,5.7-20.3,4.8-33,0.2c1.1,1.6,5,3.6,7.7,5c-29.2-0.7-39.9-2.3-53.1-12.3c-12.1-9.1-6.6-26.6,5-29.6
		c-28.2-24.6-19.1-95.2,9.3-76.1c3.2-24.6,33-23.9,47.1-4.6c9.1,12.3,12.5,26.4,15.7,42.8c20.5-16.4,39.4-4.8,36.7,16.4
		C219.5,167.2,209.4,183.6,196,196.3 M233.4,216.2c5.7,2.1,8.7,12.1,10.2,15.3c5.2,13.2,1.8,35.1,3.2,39.4c1.6,6.6,5,17.8,7.5,26.9
		c-10-5.7-27.3,11.8-35.8,13c0.5-4.6,0.7-8.4,1.1-13c5.2-2.7,9.8-5.9,11.8-10.5c-2.7,2.3-7.3,6.1-11.4,7.3c0-2.7,0-7.3-1.8-8.4
		c-0.5,8.2-1.4,16.6-2.3,24.8c-15.9-6.6-41.5,6.8-57.6,11.4c19.1-54.7,9.8-74.3,9.8-79.5C181.2,216.2,206.5,208,233.4,216.2
		 M229.9,314.8c0.2-2.5,0.5-5.5,0.7-7.7c12.5-9.1,21-10.2,22.8-7.5C255.5,302.9,243.6,308.4,229.9,314.8 M183.5,325.9
		c1.1-3.9,2.3-7.5,3.4-11.2c11.4-5.7,29.4-4.3,29.6-1.1C216.7,317.1,199.2,325,183.5,325.9 M171.2,354.2c4.6-9.1,8.4-17.5,11.4-26.2
		c6.4-0.7,13.2-1.4,16.9-3.4c-2.3,6.4-9.1,16.9-12.1,24.6C180.5,349.4,176.2,351.2,171.2,354.2 M219,362.8
		c-1.1,8.4-4.6,10.5-11.8,13.7c-5.7,2.3-24.4,1.4-32.8-3c2.1-5.2,2.3-11.4-3.6-16.4c3-2,9.8-5.9,15.3-5.5
		c-8.4,11.2,2.5,12.3,11.6,13.4c6.6,1.1,16.2-4.3,14.8-8.4C217.2,356.2,219.5,359,219,362.8 M220.2,368.3c0.9-1.1,0.9-2.1,0.9-3
		c13-4.8,23.9-5.9,32.6-5.7c34.6,0.7,47.6,18.9,46.9,28.2c-2.1,26-31.4,38.3-61.3,38.5c-21.6,0-44.9-2.5-64.5-15.9
		c10.9-14.1,5.9-26-2.1-34.2c0.2-0.5,0.5-1.1,0.9-1.6c8.4,4.3,17.5,5.9,29.8,4.3c-3.6,3-7.1,6.4-7.7,9.8
		c7.7-7.7,24.4-17.1,34.6-22.6C227.4,366.7,223.6,367.2,220.2,368.3 M100.8,441.2c-36.2-1.4-62.4-20.3-62.6-40.5
		c-0.2-21.2,22.3-31.9,39.6-33.9c12.8-1.4,27.6,0,40.1,3.2c0.2,1.4,0.7,2.7,2.1,4.8c-5.7-2.5-8.9-3-12.8-2.3
		c13.4,3.6,29.2,11.2,42.6,18.2c-1.4-2-2.7-3.6-5.7-5.2c14.3-0.2,20-1.4,26.9-8c6.6,5,8.2,15.5,7.7,18.5
		C173.9,419.6,130.4,442.1,100.8,441.2 M139.7,357.6c-2.3,3-6.4,7.3-6.6,9.3c-0.2,2.7,13.2,5.5,26.9,0.5c4.1-1.6,6.8-5.5,9.3-8.9
		c7.1,7.7,4.3,15.7-4.3,20.7c-6.4,3.9-16.6,4.6-24.8,4.1c-4.8-2.7-14.1-6.1-17.8-7.7C116.7,366.3,132.2,355.6,139.7,357.6
		 M117,263.8c-17.3-3.9-29.8-3.6-45.6,4.1c0-11.2,11.2-15.3,23.7-16.6C108.8,250.1,111.3,256.2,117,263.8 M123.1,267.9
		c14.4,6.6,21.2,14.3,21.9,22.8c0.9,8.9-0.5,13.9-3.4,18.4c-2.1,3.2-3.6,6.6-7.1,7.3c-0.7-1.1-0.2-3.4-0.2-4.6
		c-0.2-0.7,0.5-2.3,0.5-3.2c1.1-0.2,3.6-2,5.2-5.5c-2.1,1.4-3.6,2.3-4.8,2.5c0-2.3,0-5.9-1.4-8c-0.5,7.7-1.1,15.3-5.5,23
		c1.4-1.1,2.5-2.3,3.4-3.6c0.5,0.7,1.6,0.9,2.5,0.9c0,11.4-2.1,23.2-15.5,25.3c-11.4,1.6-18.2-6.2-29.4-15.5
		c1.6,3.6,4.1,6.6,8.4,9.8c-10,1.1-20.3-4.1-28.9-15.5c-0.2,3.6,3,6.6,6.4,9.8c-9.6-0.7-16.6-9.3-20-25.1
		c-2.5-10.5,4.3-26.9,14.3-34.8c5.7-4.6,13-6.8,21.4-8.2C108.1,261.3,118.6,265.8,123.1,267.9 M379.1,110.5
		c5.9-13-16.9-25.7-33-32.8c-15.7-7.1-33.7-16.6-35.8-20.5c7.7-7.7,6.4-15.9,0-28.2c-5.2-10-20-13-25.3-9.3
		c-7.5,4.8,1.4,26-1.1,35.1c-11.8,10.2-18.7,27.1-19.1,41.9c-7.5,3.2-10,10.2-9.1,20.5c-8.7,11.6-20.5,28.2-33.7,43.7
		c3.4-12.3,4.6-23.5-1.4-30.8c-2.5-26-29.6-46-36.7-50.3c23.5-5.5,31.9-22.5,31.2-41.9C214.7,20.7,196.7,0.2,174.4,0
		c-29.8,0-62.6,37.6-16.6,71.7c-32.8-3.9-52.4,16.6-59.2,26.9c1.6-23.9-13.4-40.8-34.2-41.5c-42-0.8-55.2,76.4-6.4,83.9
		c10.9,1.6,18.2-1.1,26.4-6.4c-2.5,16.4,2.5,36.2,13.9,51.7c-0.2,15.7,15.5,21.6,24.8,25.1c-16.6,6.4-36.2,18.9-40.8,40.8
		c-7.7,1.8-13,7.1-13.2,17.1c-12.5,9.1-18.2,28-16.2,38.3c3.4,16.2,9.1,25.7,23.7,26.2c9.3,5.5,18.4,6.8,23.2,5.7
		c9.1,7.7,21.9,7.5,29.4,0.9c4.6-3.9,7.1-12.1,6.4-22.6c10.7-6.4,13.2-22.8,10.7-30.5c-3.6-12.8-17.5-19.6-26-22.5
		c-2.3-3.4-3.9-6.6-7.1-9.1c4.3-18.7,27.3-27.3,43.5-28.7c25.3,28.9,2.7,96.8-16.4,127.6c-9.1-0.2-20.3,7.3-21.9,13.2
		c-18.2-4.1-65.4-13.9-82.5,23.2c-4.8-1.4-54.9-10.7-21.9-44c-36,30,6.6,44.1,20.7,48c-3.9,23.5,24.4,49.2,66.3,49
		c27.1-0.2,60.6-15,72.7-31.2c15.3,10.9,45.8,17.3,70.4,16.2c29.2-1.6,59-15.9,59-38.7c0.2-23.7-33-42.1-81.8-27.1
		c0.7-3.4-0.2-9.1-7.5-8.9c6.2-13,11.8-28.2,14.1-36.9c21-8.7,26.4-12.5,27.8-16.6c1.1-3.6-7.3-26.4-7.3-30.3
		c-0.2-11.8,1.1-23-1.8-34.2c-2.7-10.9-10-25.7-30.1-39.4c22.1-13.4,50.8-39.9,61-56.5c8.4,0.9,13.2-2.5,17.8-6.8
		c4.1-0.5,21.9,2.1,37.4,4.6c14.8,2.5,34.4,12.8,41.5,3C389.4,140.1,390.3,124.1,379.1,110.5"/>
	<path class="st0" d="M297.8,85c-9.1,0.2-16.6,5.5-19.1,12.3c15.3-13,23.9-10.2,42.4,2.7C317.6,93.4,307.8,85,297.8,85"/>
	<path class="st0" d="M84.9,268.1c-1.6-0.2-4.3,8.7-5.2,14.8c-0.9,5.7-0.7,10.2,0.7,15.7c0.2-5,0.7-11.4,1.8-17.1
		C83.5,274.5,85.5,268.1,84.9,268.1"/>
</g>
</svg>
