<?xml version="1.0" encoding="UTF-8"?><svg id="Layer_2" xmlns="http://www.w3.org/2000/svg" viewBox="0 0 266.46 42.09"><g id="Layer_1-2"><g><path d="M1.7,18.88c-.52,0-.93-.15-1.24-.46-.31-.31-.46-.72-.46-1.24s.15-.93,.46-1.24c.31-.31,.72-.46,1.24-.46s.93,.15,1.24,.46c.31,.31,.46,.72,.46,1.24s-.15,.93-.46,1.24-.72,.46-1.24,.46Zm0,7.74c-.52,0-.93-.15-1.24-.46s-.46-.72-.46-1.24,.15-.93,.46-1.24c.31-.31,.72-.46,1.24-.46s.93,.15,1.24,.46,.46,.72,.46,1.24-.15,.93-.46,1.24c-.31,.31-.72,.46-1.24,.46Zm0,7.74c-.52,0-.93-.15-1.24-.46-.31-.31-.46-.72-.46-1.24s.15-.93,.46-1.24c.31-.31,.72-.46,1.24-.46s.93,.15,1.24,.46c.31,.31,.46,.72,.46,1.24s-.15,.93-.46,1.24-.72,.46-1.24,.46ZM9.44,11.14c-.52,0-.93-.15-1.24-.46-.31-.31-.46-.72-.46-1.24s.15-.93,.46-1.24,.72-.46,1.24-.46,.93,.15,1.24,.46c.31,.31,.46,.72,.46,1.24s-.15,.93-.46,1.24-.72,.46-1.24,.46Zm0,30.95c-.52,0-.93-.15-1.24-.46-.31-.31-.46-.72-.46-1.24s.15-.93,.46-1.24,.72-.46,1.24-.46,.93,.15,1.24,.46c.31,.31,.46,.72,.46,1.24s-.15,.93-.46,1.24c-.31,.31-.72,.46-1.24,.46Zm7.74-30.95c-.52,0-.93-.15-1.24-.46-.31-.31-.46-.72-.46-1.24s.15-.93,.46-1.24c.31-.31,.72-.46,1.24-.46s.93,.15,1.24,.46,.46,.72,.46,1.24-.15,.93-.46,1.24c-.31,.31-.72,.46-1.24,.46Zm0,30.95c-.52,0-.93-.15-1.24-.46s-.46-.72-.46-1.24,.15-.93,.46-1.24c.31-.31,.72-.46,1.24-.46s.93,.15,1.24,.46,.46,.72,.46,1.24-.15,.93-.46,1.24c-.31,.31-.72,.46-1.24,.46Zm7.74-30.95c-.52,0-.93-.15-1.24-.46-.31-.31-.46-.72-.46-1.24s.15-.93,.46-1.24,.72-.46,1.24-.46,.93,.15,1.24,.46c.31,.31,.46,.72,.46,1.24s-.15,.93-.46,1.24-.72,.46-1.24,.46Zm0,30.95c-.52,0-.93-.15-1.24-.46-.31-.31-.46-.72-.46-1.24s.15-.93,.46-1.24,.72-.46,1.24-.46,.93,.15,1.24,.46c.31,.31,.46,.72,.46,1.24s-.15,.93-.46,1.24c-.31,.31-.72,.46-1.24,.46Zm7.74-30.95c-.52,0-.93-.15-1.24-.46-.31-.31-.46-.72-.46-1.24s.15-.93,.46-1.24c.31-.31,.72-.46,1.24-.46s.93,.15,1.24,.46,.46,.72,.46,1.24-.15,.93-.46,1.24c-.31,.31-.72,.46-1.24,.46Zm0,23.21c-.52,0-.93-.15-1.24-.46-.31-.31-.46-.72-.46-1.24s.15-.93,.46-1.24,.72-.46,1.24-.46,.93,.15,1.24,.46c.31,.31,.46,.72,.46,1.24s-.15,.93-.46,1.24-.72,.46-1.24,.46Z"/><path d="M48.12,18.88c-.52,0-.93-.15-1.24-.46-.31-.31-.46-.72-.46-1.24s.15-.93,.46-1.24c.31-.31,.72-.46,1.24-.46s.93,.15,1.24,.46c.31,.31,.46,.72,.46,1.24s-.15,.93-.46,1.24-.72,.46-1.24,.46Zm0,7.74c-.52,0-.93-.15-1.24-.46s-.46-.72-.46-1.24,.15-.93,.46-1.24c.31-.31,.72-.46,1.24-.46s.93,.15,1.24,.46,.46,.72,.46,1.24-.15,.93-.46,1.24c-.31,.31-.72,.46-1.24,.46Zm0,7.74c-.52,0-.93-.15-1.24-.46-.31-.31-.46-.72-.46-1.24s.15-.93,.46-1.24c.31-.31,.72-.46,1.24-.46s.93,.15,1.24,.46c.31,.31,.46,.72,.46,1.24s-.15,.93-.46,1.24-.72,.46-1.24,.46Zm7.74-23.21c-.52,0-.93-.15-1.24-.46-.31-.31-.46-.72-.46-1.24s.15-.93,.46-1.24,.72-.46,1.24-.46,.93,.15,1.24,.46c.31,.31,.46,.72,.46,1.24s-.15,.93-.46,1.24-.72,.46-1.24,.46Zm0,30.95c-.52,0-.93-.15-1.24-.46-.31-.31-.46-.72-.46-1.24s.15-.93,.46-1.24,.72-.46,1.24-.46,.93,.15,1.24,.46c.31,.31,.46,.72,.46,1.24s-.15,.93-.46,1.24c-.31,.31-.72,.46-1.24,.46Zm7.74-30.95c-.52,0-.93-.15-1.24-.46-.31-.31-.46-.72-.46-1.24s.15-.93,.46-1.24c.31-.31,.72-.46,1.24-.46s.93,.15,1.24,.46,.46,.72,.46,1.24-.15,.93-.46,1.24c-.31,.31-.72,.46-1.24,.46Zm0,30.95c-.52,0-.93-.15-1.24-.46s-.46-.72-.46-1.24,.15-.93,.46-1.24c.31-.31,.72-.46,1.24-.46s.93,.15,1.24,.46,.46,.72,.46,1.24-.15,.93-.46,1.24c-.31,.31-.72,.46-1.24,.46Zm7.74-30.95c-.52,0-.93-.15-1.24-.46-.31-.31-.46-.72-.46-1.24s.15-.93,.46-1.24,.72-.46,1.24-.46,.93,.15,1.24,.46c.31,.31,.46,.72,.46,1.24s-.15,.93-.46,1.24-.72,.46-1.24,.46Zm0,30.95c-.52,0-.93-.15-1.24-.46-.31-.31-.46-.72-.46-1.24s.15-.93,.46-1.24,.72-.46,1.24-.46,.93,.15,1.24,.46c.31,.31,.46,.72,.46,1.24s-.15,.93-.46,1.24c-.31,.31-.72,.46-1.24,.46Zm7.74-23.21c-.52,0-.93-.15-1.24-.46-.31-.31-.46-.72-.46-1.24s.15-.93,.46-1.24,.72-.46,1.24-.46,.93,.15,1.24,.46c.31,.31,.46,.72,.46,1.24s-.15,.93-.46,1.24-.72,.46-1.24,.46Zm0,7.74c-.52,0-.93-.15-1.24-.46-.31-.31-.46-.72-.46-1.24s.15-.93,.46-1.24c.31-.31,.72-.46,1.24-.46s.93,.15,1.24,.46,.46,.72,.46,1.24-.15,.93-.46,1.24c-.31,.31-.72,.46-1.24,.46Zm0,7.74c-.52,0-.93-.15-1.24-.46-.31-.31-.46-.72-.46-1.24s.15-.93,.46-1.24,.72-.46,1.24-.46,.93,.15,1.24,.46c.31,.31,.46,.72,.46,1.24s-.15,.93-.46,1.24-.72,.46-1.24,.46Z"/><path d="M94.55,11.14c-.52,0-.93-.15-1.24-.46s-.46-.72-.46-1.24,.15-.93,.46-1.24c.31-.31,.72-.46,1.24-.46s.93,.15,1.24,.46,.46,.72,.46,1.24-.15,.93-.46,1.24c-.31,.31-.72,.46-1.24,.46Zm0,7.74c-.52,0-.93-.15-1.24-.46-.31-.31-.46-.72-.46-1.24s.15-.93,.46-1.24c.31-.31,.72-.46,1.24-.46s.93,.15,1.24,.46c.31,.31,.46,.72,.46,1.24s-.15,.93-.46,1.24-.72,.46-1.24,.46Zm0,7.74c-.52,0-.93-.15-1.24-.46s-.46-.72-.46-1.24,.15-.93,.46-1.24c.31-.31,.72-.46,1.24-.46s.93,.15,1.24,.46,.46,.72,.46,1.24-.15,.93-.46,1.24c-.31,.31-.72,.46-1.24,.46Zm0,7.74c-.52,0-.93-.15-1.24-.46-.31-.31-.46-.72-.46-1.24s.15-.93,.46-1.24c.31-.31,.72-.46,1.24-.46s.93,.15,1.24,.46c.31,.31,.46,.72,.46,1.24s-.15,.93-.46,1.24-.72,.46-1.24,.46Zm0,7.74c-.52,0-.93-.15-1.24-.46-.31-.31-.46-.72-.46-1.24s.15-.93,.46-1.24c.31-.31,.72-.46,1.24-.46s.93,.15,1.24,.46,.46,.72,.46,1.24-.15,.93-.46,1.24c-.31,.31-.72,.46-1.24,.46Zm7.74-30.95c-.52,0-.93-.15-1.24-.46-.31-.31-.46-.72-.46-1.24s.15-.93,.46-1.24,.72-.46,1.24-.46,.93,.15,1.24,.46c.31,.31,.46,.72,.46,1.24s-.15,.93-.46,1.24-.72,.46-1.24,.46Zm7.74,0c-.52,0-.93-.15-1.24-.46-.31-.31-.46-.72-.46-1.24s.15-.93,.46-1.24c.31-.31,.72-.46,1.24-.46s.93,.15,1.24,.46,.46,.72,.46,1.24-.15,.93-.46,1.24c-.31,.31-.72,.46-1.24,.46Zm0,7.74c-.52,0-.93-.15-1.24-.46-.31-.31-.46-.72-.46-1.24s.15-.93,.46-1.24,.72-.46,1.24-.46,.93,.15,1.24,.46c.31,.31,.46,.72,.46,1.24s-.15,.93-.46,1.24-.72,.46-1.24,.46Zm0,7.74c-.52,0-.93-.15-1.24-.46-.31-.31-.46-.72-.46-1.24s.15-.93,.46-1.24c.31-.31,.72-.46,1.24-.46s.93,.15,1.24,.46,.46,.72,.46,1.24-.15,.93-.46,1.24c-.31,.31-.72,.46-1.24,.46Zm0,7.74c-.52,0-.93-.15-1.24-.46-.31-.31-.46-.72-.46-1.24s.15-.93,.46-1.24,.72-.46,1.24-.46,.93,.15,1.24,.46c.31,.31,.46,.72,.46,1.24s-.15,.93-.46,1.24-.72,.46-1.24,.46Zm0,7.74c-.52,0-.93-.15-1.24-.46s-.46-.72-.46-1.24,.15-.93,.46-1.24c.31-.31,.72-.46,1.24-.46s.93,.15,1.24,.46,.46,.72,.46,1.24-.15,.93-.46,1.24c-.31,.31-.72,.46-1.24,.46Zm7.74-30.95c-.52,0-.93-.15-1.24-.46-.31-.31-.46-.72-.46-1.24s.15-.93,.46-1.24,.72-.46,1.24-.46,.93,.15,1.24,.46c.31,.31,.46,.72,.46,1.24s-.15,.93-.46,1.24-.72,.46-1.24,.46Zm7.74,7.74c-.52,0-.93-.15-1.24-.46-.31-.31-.46-.72-.46-1.24s.15-.93,.46-1.24,.72-.46,1.24-.46,.93,.15,1.24,.46c.31,.31,.46,.72,.46,1.24s-.15,.93-.46,1.24-.72,.46-1.24,.46Zm0,7.74c-.52,0-.93-.15-1.24-.46-.31-.31-.46-.72-.46-1.24s.15-.93,.46-1.24c.31-.31,.72-.46,1.24-.46s.93,.15,1.24,.46,.46,.72,.46,1.24-.15,.93-.46,1.24c-.31,.31-.72,.46-1.24,.46Zm0,7.74c-.52,0-.93-.15-1.24-.46-.31-.31-.46-.72-.46-1.24s.15-.93,.46-1.24,.72-.46,1.24-.46,.93,.15,1.24,.46c.31,.31,.46,.72,.46,1.24s-.15,.93-.46,1.24-.72,.46-1.24,.46Zm0,7.74c-.52,0-.93-.15-1.24-.46s-.46-.72-.46-1.24,.15-.93,.46-1.24c.31-.31,.72-.46,1.24-.46s.93,.15,1.24,.46,.46,.72,.46,1.24-.15,.93-.46,1.24c-.31,.31-.72,.46-1.24,.46Z"/><path d="M140.97,3.4c-.52,0-.93-.15-1.24-.46-.31-.31-.46-.72-.46-1.24s.15-.93,.46-1.24c.31-.31,.72-.46,1.24-.46s.93,.15,1.24,.46,.46,.72,.46,1.24-.15,.93-.46,1.24-.72,.46-1.24,.46Zm0,7.74c-.52,0-.93-.15-1.24-.46s-.46-.72-.46-1.24,.15-.93,.46-1.24c.31-.31,.72-.46,1.24-.46s.93,.15,1.24,.46,.46,.72,.46,1.24-.15,.93-.46,1.24c-.31,.31-.72,.46-1.24,.46Zm0,7.74c-.52,0-.93-.15-1.24-.46-.31-.31-.46-.72-.46-1.24s.15-.93,.46-1.24c.31-.31,.72-.46,1.24-.46s.93,.15,1.24,.46c.31,.31,.46,.72,.46,1.24s-.15,.93-.46,1.24-.72,.46-1.24,.46Zm0,7.74c-.52,0-.93-.15-1.24-.46s-.46-.72-.46-1.24,.15-.93,.46-1.24c.31-.31,.72-.46,1.24-.46s.93,.15,1.24,.46,.46,.72,.46,1.24-.15,.93-.46,1.24c-.31,.31-.72,.46-1.24,.46Zm0,7.74c-.52,0-.93-.15-1.24-.46-.31-.31-.46-.72-.46-1.24s.15-.93,.46-1.24c.31-.31,.72-.46,1.24-.46s.93,.15,1.24,.46c.31,.31,.46,.72,.46,1.24s-.15,.93-.46,1.24-.72,.46-1.24,.46Zm0,7.74c-.52,0-.93-.15-1.24-.46-.31-.31-.46-.72-.46-1.24s.15-.93,.46-1.24c.31-.31,.72-.46,1.24-.46s.93,.15,1.24,.46,.46,.72,.46,1.24-.15,.93-.46,1.24c-.31,.31-.72,.46-1.24,.46Zm7.74-23.21c-.52,0-.93-.15-1.24-.46s-.46-.72-.46-1.24,.15-.93,.46-1.24c.31-.31,.72-.46,1.24-.46s.93,.15,1.24,.46c.31,.31,.46,.72,.46,1.24s-.15,.93-.46,1.24c-.31,.31-.72,.46-1.24,.46Zm0,23.21c-.52,0-.93-.15-1.24-.46-.31-.31-.46-.72-.46-1.24s.15-.93,.46-1.24,.72-.46,1.24-.46,.93,.15,1.24,.46c.31,.31,.46,.72,.46,1.24s-.15,.93-.46,1.24c-.31,.31-.72,.46-1.24,.46Zm7.74-30.95c-.52,0-.93-.15-1.24-.46-.31-.31-.46-.72-.46-1.24s.15-.93,.46-1.24c.31-.31,.72-.46,1.24-.46s.93,.15,1.24,.46,.46,.72,.46,1.24-.15,.93-.46,1.24c-.31,.31-.72,.46-1.24,.46Zm0,30.95c-.52,0-.93-.15-1.24-.46s-.46-.72-.46-1.24,.15-.93,.46-1.24c.31-.31,.72-.46,1.24-.46s.93,.15,1.24,.46,.46,.72,.46,1.24-.15,.93-.46,1.24c-.31,.31-.72,.46-1.24,.46Zm7.74-30.95c-.52,0-.93-.15-1.24-.46-.31-.31-.46-.72-.46-1.24s.15-.93,.46-1.24,.72-.46,1.24-.46,.93,.15,1.24,.46c.31,.31,.46,.72,.46,1.24s-.15,.93-.46,1.24-.72,.46-1.24,.46Zm0,30.95c-.52,0-.93-.15-1.24-.46-.31-.31-.46-.72-.46-1.24s.15-.93,.46-1.24,.72-.46,1.24-.46,.93,.15,1.24,.46c.31,.31,.46,.72,.46,1.24s-.15,.93-.46,1.24c-.31,.31-.72,.46-1.24,.46Zm7.74-23.21c-.52,0-.93-.15-1.24-.46-.31-.31-.46-.72-.46-1.24s.15-.93,.46-1.24,.72-.46,1.24-.46,.93,.15,1.24,.46c.31,.31,.46,.72,.46,1.24s-.15,.93-.46,1.24-.72,.46-1.24,.46Zm0,7.74c-.52,0-.93-.15-1.24-.46-.31-.31-.46-.72-.46-1.24s.15-.93,.46-1.24c.31-.31,.72-.46,1.24-.46s.93,.15,1.24,.46,.46,.72,.46,1.24-.15,.93-.46,1.24c-.31,.31-.72,.46-1.24,.46Zm0,7.74c-.52,0-.93-.15-1.24-.46-.31-.31-.46-.72-.46-1.24s.15-.93,.46-1.24,.72-.46,1.24-.46,.93,.15,1.24,.46c.31,.31,.46,.72,.46,1.24s-.15,.93-.46,1.24-.72,.46-1.24,.46Z"/><path d="M187.39,34.35c-.52,0-.93-.15-1.24-.46-.31-.31-.46-.72-.46-1.24s.15-.93,.46-1.24c.31-.31,.72-.46,1.24-.46s.93,.15,1.24,.46c.31,.31,.46,.72,.46,1.24s-.15,.93-.46,1.24-.72,.46-1.24,.46Zm7.74-23.21c-.52,0-.93-.15-1.24-.46-.31-.31-.46-.72-.46-1.24s.15-.93,.46-1.24,.72-.46,1.24-.46,.93,.15,1.24,.46c.31,.31,.46,.72,.46,1.24s-.15,.93-.46,1.24-.72,.46-1.24,.46Zm0,15.47c-.52,0-.93-.15-1.24-.46-.31-.31-.46-.72-.46-1.24s.15-.93,.46-1.24,.72-.46,1.24-.46,.93,.15,1.24,.46c.31,.31,.46,.72,.46,1.24s-.15,.93-.46,1.24-.72,.46-1.24,.46Zm0,15.47c-.52,0-.93-.15-1.24-.46-.31-.31-.46-.72-.46-1.24s.15-.93,.46-1.24,.72-.46,1.24-.46,.93,.15,1.24,.46c.31,.31,.46,.72,.46,1.24s-.15,.93-.46,1.24c-.31,.31-.72,.46-1.24,.46Zm7.74-30.95c-.52,0-.93-.15-1.24-.46-.31-.31-.46-.72-.46-1.24s.15-.93,.46-1.24c.31-.31,.72-.46,1.24-.46s.93,.15,1.24,.46,.46,.72,.46,1.24-.15,.93-.46,1.24c-.31,.31-.72,.46-1.24,.46Zm0,15.47c-.52,0-.93-.15-1.24-.46-.31-.31-.46-.72-.46-1.24s.15-.93,.46-1.24c.31-.31,.72-.46,1.24-.46s.93,.15,1.24,.46,.46,.72,.46,1.24-.15,.93-.46,1.24c-.31,.31-.72,.46-1.24,.46Zm0,15.47c-.52,0-.93-.15-1.24-.46s-.46-.72-.46-1.24,.15-.93,.46-1.24c.31-.31,.72-.46,1.24-.46s.93,.15,1.24,.46,.46,.72,.46,1.24-.15,.93-.46,1.24c-.31,.31-.72,.46-1.24,.46Zm7.74-30.95c-.52,0-.93-.15-1.24-.46-.31-.31-.46-.72-.46-1.24s.15-.93,.46-1.24,.72-.46,1.24-.46,.93,.15,1.24,.46c.31,.31,.46,.72,.46,1.24s-.15,.93-.46,1.24-.72,.46-1.24,.46Zm0,15.47c-.52,0-.93-.15-1.24-.46-.31-.31-.46-.72-.46-1.24s.15-.93,.46-1.24,.72-.46,1.24-.46,.93,.15,1.24,.46c.31,.31,.46,.72,.46,1.24s-.15,.93-.46,1.24-.72,.46-1.24,.46Zm7.74-7.74c-.52,0-.93-.15-1.24-.46-.31-.31-.46-.72-.46-1.24s.15-.93,.46-1.24,.72-.46,1.24-.46,.93,.15,1.24,.46c.31,.31,.46,.72,.46,1.24s-.15,.93-.46,1.24-.72,.46-1.24,.46Zm0,7.74c-.52,0-.93-.15-1.24-.46-.31-.31-.46-.72-.46-1.24s.15-.93,.46-1.24c.31-.31,.72-.46,1.24-.46s.93,.15,1.24,.46,.46,.72,.46,1.24-.15,.93-.46,1.24c-.31,.31-.72,.46-1.24,.46Zm0,7.74c-.52,0-.93-.15-1.24-.46-.31-.31-.46-.72-.46-1.24s.15-.93,.46-1.24,.72-.46,1.24-.46,.93,.15,1.24,.46c.31,.31,.46,.72,.46,1.24s-.15,.93-.46,1.24-.72,.46-1.24,.46Zm0,7.74c-.52,0-.93-.15-1.24-.46s-.46-.72-.46-1.24,.15-.93,.46-1.24c.31-.31,.72-.46,1.24-.46s.93,.15,1.24,.46,.46,.72,.46,1.24-.15,.93-.46,1.24c-.31,.31-.72,.46-1.24,.46Z"/><path d="M233.81,11.14c-.52,0-.93-.15-1.24-.46s-.46-.72-.46-1.24,.15-.93,.46-1.24c.31-.31,.72-.46,1.24-.46s.93,.15,1.24,.46,.46,.72,.46,1.24-.15,.93-.46,1.24c-.31,.31-.72,.46-1.24,.46Zm7.74-7.74c-.52,0-.93-.15-1.24-.46s-.46-.72-.46-1.24,.15-.93,.46-1.24,.72-.46,1.24-.46,.93,.15,1.24,.46c.31,.31,.46,.72,.46,1.24s-.15,.93-.46,1.24c-.31,.31-.72,.46-1.24,.46Zm0,7.74c-.52,0-.93-.15-1.24-.46-.31-.31-.46-.72-.46-1.24s.15-.93,.46-1.24,.72-.46,1.24-.46,.93,.15,1.24,.46c.31,.31,.46,.72,.46,1.24s-.15,.93-.46,1.24-.72,.46-1.24,.46Zm0,7.74c-.52,0-.93-.15-1.24-.46s-.46-.72-.46-1.24,.15-.93,.46-1.24c.31-.31,.72-.46,1.24-.46s.93,.15,1.24,.46c.31,.31,.46,.72,.46,1.24s-.15,.93-.46,1.24c-.31,.31-.72,.46-1.24,.46Zm0,7.74c-.52,0-.93-.15-1.24-.46-.31-.31-.46-.72-.46-1.24s.15-.93,.46-1.24,.72-.46,1.24-.46,.93,.15,1.24,.46c.31,.31,.46,.72,.46,1.24s-.15,.93-.46,1.24-.72,.46-1.24,.46Zm0,7.74c-.52,0-.93-.15-1.24-.46s-.46-.72-.46-1.24,.15-.93,.46-1.24c.31-.31,.72-.46,1.24-.46s.93,.15,1.24,.46c.31,.31,.46,.72,.46,1.24s-.15,.93-.46,1.24c-.31,.31-.72,.46-1.24,.46Zm7.74-23.21c-.52,0-.93-.15-1.24-.46-.31-.31-.46-.72-.46-1.24s.15-.93,.46-1.24c.31-.31,.72-.46,1.24-.46s.93,.15,1.24,.46,.46,.72,.46,1.24-.15,.93-.46,1.24c-.31,.31-.72,.46-1.24,.46Zm0,30.95c-.52,0-.93-.15-1.24-.46s-.46-.72-.46-1.24,.15-.93,.46-1.24c.31-.31,.72-.46,1.24-.46s.93,.15,1.24,.46,.46,.72,.46,1.24-.15,.93-.46,1.24c-.31,.31-.72,.46-1.24,.46Zm7.74-30.95c-.52,0-.93-.15-1.24-.46-.31-.31-.46-.72-.46-1.24s.15-.93,.46-1.24,.72-.46,1.24-.46,.93,.15,1.24,.46c.31,.31,.46,.72,.46,1.24s-.15,.93-.46,1.24-.72,.46-1.24,.46Zm0,30.95c-.52,0-.93-.15-1.24-.46-.31-.31-.46-.72-.46-1.24s.15-.93,.46-1.24,.72-.46,1.24-.46,.93,.15,1.24,.46c.31,.31,.46,.72,.46,1.24s-.15,.93-.46,1.24c-.31,.31-.72,.46-1.24,.46Zm7.74-30.95c-.52,0-.93-.15-1.24-.46-.31-.31-.46-.72-.46-1.24s.15-.93,.46-1.24c.31-.31,.72-.46,1.24-.46s.93,.15,1.24,.46,.46,.72,.46,1.24-.15,.93-.46,1.24c-.31,.31-.72,.46-1.24,.46Zm0,30.95c-.52,0-.93-.15-1.24-.46s-.46-.72-.46-1.24,.15-.93,.46-1.24c.31-.31,.72-.46,1.24-.46s.93,.15,1.24,.46,.46,.72,.46,1.24-.15,.93-.46,1.24c-.31,.31-.72,.46-1.24,.46Z"/></g></g></svg>